<svg xmlns="http://www.w3.org/2000/svg" viewBox="0 0 50 50">
  <path style="text-indent:0;text-align:start;line-height:normal;text-transform:none;block-progression:tb;-inkscape-font-specification:Sans" d="M44 2a1 1 0 0 0-.2 0H40a1 1 0 0 0-.7.3l-14 14.3 1.1 1.6 3.8-3.9.7 6.6-1 1.6 1 1.5.2.2L43 6.3v22a2 2 0 0 0 0 3.4V33c0 1 .6 1.8 1.6 2a2 2 0 0 1 1.4 2.4 2 2 0 0 1-1.6 1.6 2 2 0 0 1-2.4-2 1 1 0 1 0-2 0 4 4 0 0 0 4.7 4 4 4 0 0 0 3.2-3.3c.4-2-1-4-2.8-4.5L45 33v-1.3a2 2 0 0 0 0-3.4V3v-.2a1 1 0 0 0-.3-.6A1 1 0 0 0 44 2zm-3.6 2h1.7l-3.4 5.1-.3-3.1 2-2zm-3.8 3.9l.2 3-3.5.3 3.3-3.3zm-.4 5l-3.6 5.3-.5-5 4-.2zM8 16a3 3 0 0 0-3 3v12a3 3 0 0 0 3 3h3v2H8a6 6 0 0 0-6 6 6 6 0 0 0 6 6h22a6 6 0 0 0 6-6 6 6 0 0 0-6-6h-3v-2h1a3 3 0 0 0 3-3v-4a4 4 0 0 0-.8-2.4l-5.8-7.4A3 3 0 0 0 22 16H8zm0 2h8.3L19 28.3l.3.7H29v2c0 .6-.4 1-1 1H8a1 1 0 0 1-1-1V19c0-.6.4-1 1-1zm10.3 0H22c.3 0 .6.1.8.4l5.8 7.4c.3.4.4.8.4 1.2h-8.3l-2.4-9zM13 34h12v2H13v-2zm-5 4h22a4 4 0 0 1 4 4 4 4 0 0 1-4 4H8a4 4 0 0 1-4-4 4 4 0 0 1 4-4zm0 2a2 2 0 1 0 0 4 2 2 0 0 0 0-4zm6 0a2 2 0 1 0 0 4 2 2 0 0 0 0-4zm10 0a2 2 0 1 0 0 4 2 2 0 0 0 0-4zm6 0a2 2 0 1 0 0 4 2 2 0 0 0 0-4z"/>
</svg>
