<?xml version="1.0" standalone="no"?>
<!DOCTYPE svg PUBLIC "-//W3C//DTD SVG 20010904//EN"
 "http://www.w3.org/TR/2001/REC-SVG-20010904/DTD/svg10.dtd">
<svg version="1.0" xmlns="http://www.w3.org/2000/svg"
 width="577.000000pt" height="500.000000pt" viewBox="0 0 577.000000 500.000000"
 preserveAspectRatio="xMidYMid meet">
<metadata>
Created by potrace 1.15, written by Peter Selinger 2001-2017
</metadata>
<g transform="translate(0.000000,500.000000) scale(0.100000,-0.100000)"
fill="#000000" stroke="none">
<path d="M3335 4843 c-156 -25 -173 -26 -675 -27 -405 0 -529 3 -579 13 l-64
14 -24 -27 c-12 -15 -23 -35 -23 -44 0 -23 -37 -82 -51 -82 -7 0 -4 9 6 20 18
20 48 91 41 98 -2 1 -11 -16 -21 -40 -9 -24 -23 -50 -30 -58 -8 -8 -14 -19
-14 -25 0 -5 -5 -11 -12 -14 -8 -2 -9 1 -4 10 5 8 4 11 -1 6 -5 -5 -9 -12 -9
-15 0 -13 -16 -32 -27 -32 -6 0 -5 7 3 18 11 15 11 15 -1 4 -8 -7 -15 -18 -15
-25 0 -15 -164 -126 -187 -127 -24 0 -66 -55 -74 -95 -3 -20 -10 -38 -15 -41
-5 -3 -9 -20 -9 -38 0 -21 -8 -40 -22 -52 -13 -12 -18 -13 -13 -4 5 9 0 8 -13
-4 -26 -22 -30 -35 -5 -15 9 8 14 10 12 4 -3 -5 -23 -46 -44 -90 -37 -75 -40
-86 -43 -185 -3 -79 2 -131 17 -207 26 -127 125 -431 175 -538 57 -121 264
-620 291 -700 58 -174 36 -324 -81 -555 -29 -58 -57 -117 -63 -132 -9 -23 -17
-27 -68 -32 -152 -16 -234 -29 -308 -48 -83 -21 -224 -82 -274 -117 -36 -26
-48 -27 -30 -3 13 15 12 16 -3 3 -10 -7 -16 -17 -13 -21 2 -4 -10 -20 -27 -36
-17 -16 -41 -52 -54 -80 -16 -36 -30 -53 -47 -58 -14 -3 -27 -12 -30 -20 -5
-11 19 -200 38 -309 3 -20 1 -26 -8 -21 -6 4 -8 3 -4 -1 4 -5 13 -10 20 -11 7
-1 43 -16 80 -33 53 -25 80 -31 125 -30 39 1 72 -6 103 -20 74 -33 206 -51
383 -51 l162 0 39 -42 c22 -23 31 -36 20 -28 -15 11 -14 8 4 -13 25 -28 43
-38 21 -12 -8 9 -9 15 -2 15 11 0 27 -19 27 -34 0 -5 11 -15 25 -24 l25 -14
-25 22 c-30 26 -29 26 91 -33 221 -108 500 -180 939 -243 216 -30 249 -38 282
-61 21 -14 38 -34 38 -45 0 -10 -13 -44 -29 -76 -26 -52 -28 -63 -22 -128 4
-40 13 -80 21 -89 35 -42 131 -58 180 -30 31 18 43 19 34 3 -5 -9 -2 -8 9 1
10 8 15 16 13 19 -3 2 1 14 9 26 10 13 15 47 16 96 1 53 3 68 9 50 5 -17 8
-19 9 -7 1 13 7 16 29 12 16 -3 10 1 -15 12 -66 26 -51 34 19 11 54 -19 67
-20 107 -9 56 15 70 26 92 76 25 54 24 88 -6 175 -14 40 -25 75 -25 76 0 2 29
1 65 -3 46 -4 69 -2 80 7 9 7 19 10 22 6 8 -7 8 -11 23 -109 12 -79 21 -100
63 -144 17 -18 27 -33 23 -33 -5 0 -3 -7 4 -15 7 -8 17 -15 23 -15 6 0 3 6 -7
13 -16 12 -10 13 42 9 54 -4 68 0 145 36 107 50 132 59 122 41 -5 -8 -4 -11 1
-6 5 5 9 12 9 17 0 5 35 31 78 59 90 59 166 126 178 158 4 12 25 31 46 42 79
40 89 63 134 289 12 61 28 120 35 130 12 15 13 15 8 -8 -2 -14 -1 -18 2 -10 4
8 12 21 18 29 8 11 8 13 -1 7 -17 -10 -17 26 -1 42 15 15 19 354 4 387 -4 11
-9 112 -10 225 l-1 205 -32 62 c-18 34 -56 101 -84 148 -57 97 -55 91 -69 310
-5 88 -21 220 -35 294 -29 157 -29 155 -10 148 12 -5 13 10 9 101 -3 59 -7
175 -8 257 -1 83 -8 177 -15 210 -25 115 -51 200 -66 211 -17 12 -21 29 -5 19
6 -3 10 1 10 9 0 8 -6 13 -12 11 -9 -3 -26 33 -52 107 -51 146 -161 363 -231
456 -55 74 -64 89 -44 76 8 -4 8 0 0 15 -14 25 -23 28 -14 4 6 -16 5 -16 -10
-4 -10 8 -16 19 -14 25 6 15 -11 46 -25 46 -6 0 -3 -10 8 -22 10 -13 -28 22
-84 77 -56 55 -102 102 -102 104 0 2 8 -3 18 -11 16 -14 53 -37 42 -26 -34 33
-99 86 -81 65 37 -41 10 -32 -30 10 -18 20 -25 31 -14 23 11 -8 4 3 -14 23
-19 20 -37 37 -40 37 -2 0 6 -11 19 -25 28 -29 16 -34 -14 -6 -12 11 -41 27
-66 36 -25 9 -61 23 -80 30 -53 21 -185 16 -365 -12z m615 -577 c44 -84 57
-122 82 -240 53 -254 86 -834 68 -1190 -10 -196 -21 -248 -75 -357 -46 -91
-79 -126 -128 -141 -23 -6 -50 -18 -59 -26 -22 -19 -81 -8 -107 19 -19 21 -86
25 -98 5 -4 -5 0 -6 8 -1 12 8 12 6 0 -8 -13 -16 -36 -14 -26 3 5 9 -11 24
-37 33 -29 10 -21 -3 8 -14 15 -5 24 -12 21 -15 -9 -9 -62 21 -60 33 1 6 -5
17 -15 25 -15 12 -16 11 -3 -4 20 -27 7 -22 -86 29 -49 28 -91 58 -98 73 -7
14 -35 53 -62 87 -103 132 -148 230 -192 419 l-12 50 100 265 c54 145 109 289
121 319 35 90 113 250 122 250 5 0 4 -9 -2 -19 -5 -11 -10 -23 -10 -28 1 -4 8
5 16 21 12 21 13 31 5 36 -7 4 24 39 81 90 l93 84 -80 -84 c-76 -80 -77 -81
-15 -25 64 59 142 144 107 116 -36 -28 -15 4 41 64 31 33 95 102 141 154 46
51 87 89 91 84 4 -4 31 -53 60 -107z m-1877 -404 c24 -26 79 -155 69 -161 -14
-9 -10 -40 5 -45 11 -4 11 -1 3 14 -6 11 -7 20 -2 20 8 0 21 -31 22 -51 0 -9
-151 41 -177 59 -15 9 -31 41 -48 94 -14 43 -25 81 -25 84 0 2 31 4 68 4 53 0
73 -4 85 -18z m842 -24 c10 -10 -83 -178 -98 -178 -5 0 -5 6 -1 13 4 6 3 8 -2
4 -4 -4 -21 16 -36 45 -16 29 -26 42 -23 28 4 -16 -5 -6 -24 25 -16 27 -27 52
-24 55 3 3 8 0 10 -6 2 -6 11 -20 19 -30 13 -17 13 -15 0 13 -9 17 -24 34 -33
37 -10 3 32 4 94 3 61 -1 115 -5 118 -9z m-700 -462 c70 -11 70 -11 92 -56 41
-85 122 -345 147 -475 25 -127 65 -403 63 -437 0 -10 -3 -18 -7 -18 -12 0 -43
40 -37 46 4 4 9 -1 13 -10 3 -9 10 -16 16 -16 5 0 6 6 2 12 -5 7 -8 29 -7 48
1 34 1 34 -5 5 -4 -17 -13 -30 -22 -30 -19 0 -103 136 -147 239 -45 103 -244
696 -234 696 4 0 12 -12 18 -27 11 -28 11 -28 10 -3 -1 16 -11 30 -27 38 -23
12 -22 12 15 6 22 -4 72 -12 110 -18z m2233 -941 c30 -9 52 -54 52 -108 0 -47
-13 -67 -45 -67 -45 0 -105 76 -105 134 0 28 35 58 60 52 8 -3 25 -7 38 -11z
m38 -398 c14 -43 7 -222 -10 -256 -24 -46 -55 -41 -100 14 -53 64 -70 109 -56
149 18 54 113 132 146 119 7 -3 16 -15 20 -26z m-1010 -108 c3 -6 1 -16 -5
-22 -14 -14 -14 -23 2 -39 8 -7 16 -35 19 -62 5 -38 2 -52 -13 -67 -17 -17
-74 -37 -123 -44 -12 -1 -29 -6 -40 -10 -14 -6 -23 -2 -37 16 -29 38 -44 168
-24 196 24 32 204 58 221 32z m-1708 -375 c7 -12 3 -26 -13 -50 -12 -18 -30
-62 -40 -98 l-18 -65 -46 -7 c-92 -15 -312 -9 -380 9 -36 10 -70 22 -78 28
-57 48 69 123 275 164 186 37 286 43 300 19z m1812 -212 c0 -15 8 -59 19 -97
10 -39 22 -87 26 -109 8 -49 25 -76 48 -76 10 0 21 9 25 21 7 19 9 19 22 5 22
-27 -3 -116 -44 -158 -49 -51 -156 -88 -251 -88 -40 0 -85 4 -100 10 -25 10
-61 72 -51 89 3 5 29 11 59 14 77 10 117 26 127 53 5 13 16 24 25 24 22 0 19
56 -9 170 -13 52 -21 102 -19 111 3 9 28 26 56 37 68 26 67 26 67 -6z m943
-501 c4 -30 5 -56 3 -58 -6 -6 -459 -21 -468 -16 -5 2 -8 29 -8 59 l0 54 133
1 c72 1 170 4 217 9 119 10 114 12 123 -49z m-1073 -537 c-12 -4 -14 -15 -12
-44 3 -25 -1 -47 -9 -57 -13 -15 -12 -15 6 -6 15 9 19 20 17 55 -2 32 0 39 7
28 18 -25 12 -68 -11 -90 -32 -30 -101 -28 -133 5 -30 29 -35 85 -7 86 14 0
14 2 -3 9 -16 6 -10 9 25 12 59 6 139 7 120 2z"/>
</g>
</svg>
