<svg height="511pt" viewBox="-25 1 511 511.99904" width="511pt" xmlns="http://www.w3.org/2000/svg"><path d="m220.5 250c0 5.523438-4.476562 10-10 10s-10-4.476562-10-10 4.476562-10 10-10 10 4.476562 10 10zm0 0"/><path d="m20.5 200h-10c-5.523438 0-10 4.476562-10 10v106c0 5.523438 4.476562 10 10 10h40c5.519531 0 10-4.476562 10-10v-106c0-5.523438-4.480469-10-10-10h-10v-10c0-49.625 40.375-90 90-90h10c7.28125 0 14.109375-1.964844 20-5.382812v26.109374c-33.875 4.867188-60 34.070313-60 69.273438v312c0 5.519531 4.476562 10 10 10h180c5.519531 0 10-4.480469 10-10v-312c0-35.203125-26.125-64.40625-60-69.273438v-30.726562h49.070312l159.085938 29.828125c6.136719 1.15625 11.84375-3.5625 11.84375-9.828125v-100c0-2.976562-1.324219-5.796875-3.613281-7.695312-2.289063-1.898438-5.308594-2.683594-8.230469-2.132813l-159.085938 29.828125h-49.070312v-20c0-5.523438-4.480469-10-10-10h-60c-5.523438 0-10 4.476562-10 10v15.382812c-5.890625-3.417968-12.71875-5.382812-20-5.382812-22.058594 0-40 17.945312-40 40 0 8.3125 2.550781 16.042969 6.910156 22.445312-49.605468 10.636719-86.910156 54.820313-86.910156 107.554688zm20 106h-20v-86h20zm80 186v-20h160v20zm160-100h-100v-172h100zm0-202v10h-110c-5.523438 0-10 4.476562-10 10v192c0 5.523438 4.476562 10 10 10h110v40h-160v-262c0-27.570312 22.429688-50 50-50h60c27.570312 0 50 22.429688 50 50zm160-92.050781-140-26.25v-23.398438l140-26.25zm-160-47.949219v20h-40v-20zm-100-30h40v100h-40zm-40 20c11.027344 0 20 8.972656 20 20s-8.972656 20-20 20-20-8.972656-20-20 8.972656-20 20-20zm0 0"/><path d="m210.5 372c5.519531 0 10-4.476562 10-10v-72c0-5.523438-4.480469-10-10-10-5.523438 0-10 4.476562-10 10v72c0 5.523438 4.476562 10 10 10zm0 0"/></svg>