<?xml version="1.0" standalone="no"?>
<!DOCTYPE svg PUBLIC "-//W3C//DTD SVG 20010904//EN"
 "http://www.w3.org/TR/2001/REC-SVG-20010904/DTD/svg10.dtd">
<svg version="1.0" xmlns="http://www.w3.org/2000/svg"
 width="1000.000000pt" height="675.000000pt" viewBox="0 0 1000.000000 675.000000"
 preserveAspectRatio="xMidYMid meet">
<metadata>
Created by potrace 1.15, written by Peter Selinger 2001-2017
</metadata>
<g transform="translate(0.000000,675.000000) scale(0.100000,-0.100000)"
fill="#000000" stroke="none">
<path d="M7100 6619 c-694 -175 -1272 -343 -1597 -465 -94 -35 -178 -64 -186
-64 -8 0 -34 11 -59 25 -59 33 -140 41 -197 21 -24 -9 -69 -16 -100 -16 -58 0
-143 -23 -221 -59 -25 -11 -71 -27 -103 -36 -36 -10 -72 -28 -96 -50 -39 -35
-141 -86 -211 -105 -22 -6 -61 -24 -87 -40 -27 -16 -98 -50 -160 -75 -102 -41
-119 -45 -196 -45 -115 0 -165 -19 -235 -89 -40 -40 -75 -64 -117 -81 -33 -13
-69 -29 -80 -36 -11 -8 -61 -29 -110 -47 -50 -19 -241 -98 -425 -177 -184 -79
-382 -158 -440 -175 -58 -18 -161 -60 -231 -93 -160 -77 -424 -188 -469 -197
-19 -4 -50 -18 -68 -32 -18 -13 -49 -27 -70 -29 -51 -8 -91 -24 -118 -49 -12
-12 -85 -48 -161 -80 -76 -32 -142 -62 -148 -66 -22 -16 -273 -123 -328 -140
-32 -10 -89 -36 -125 -58 -37 -22 -116 -61 -177 -86 -60 -25 -129 -59 -151
-75 -23 -16 -80 -44 -128 -61 -150 -54 -179 -85 -173 -182 5 -85 25 -102 125
-102 65 0 99 7 225 49 81 27 150 46 153 43 3 -3 -22 -38 -56 -79 -83 -98 -202
-257 -345 -463 -65 -93 -145 -204 -177 -245 l-58 -76 1 -129 c1 -103 3 -121
10 -86 5 24 20 60 33 80 69 100 86 124 123 168 22 26 80 107 129 178 173 255
371 515 435 570 12 11 -3 -10 -34 -48 -57 -67 -74 -95 -39 -64 18 17 71 23
235 29 37 1 67 6 67 11 0 4 5 5 10 2 13 -8 49 34 50 58 0 9 5 17 10 17 6 0 10
7 10 16 0 22 71 121 122 171 79 78 133 113 331 217 59 31 167 91 240 133 73
42 164 95 203 117 38 23 89 50 112 60 23 10 39 23 35 29 -4 6 0 8 11 4 9 -4
15 -3 12 2 -3 5 44 30 104 56 60 26 107 51 104 56 -3 5 2 6 10 3 17 -6 76 22
76 37 0 6 9 8 21 4 15 -5 19 -4 15 4 -5 8 0 8 19 1 14 -5 24 -6 21 -2 -6 10
119 57 154 57 14 0 31 6 39 13 7 7 20 11 28 8 8 -4 11 -1 7 5 -4 8 1 9 15 4
14 -4 23 -1 27 9 3 9 10 13 15 11 5 -3 11 6 15 20 4 17 11 24 21 21 9 -4 11
-2 7 6 -5 8 -2 9 9 5 10 -3 17 -2 17 4 0 6 4 7 10 4 5 -3 10 -1 10 5 0 7 7 9
16 6 8 -3 13 -2 10 3 -7 11 22 23 35 15 5 -3 9 0 9 6 0 6 4 9 9 6 12 -8 42 4
36 14 -6 10 24 22 36 14 5 -3 9 -1 9 5 0 6 7 8 15 5 9 -4 18 1 21 11 4 9 13
14 20 11 8 -3 14 -1 14 4 0 5 7 6 17 3 12 -5 14 -3 8 7 -6 10 -4 12 9 7 9 -4
15 -3 11 2 -3 5 1 12 7 15 13 6 -25 -3 -52 -12 -10 -3 -12 -2 -5 5 16 16 196
93 205 88 5 -3 10 -1 12 4 5 15 217 103 230 95 6 -4 8 -3 5 3 -8 13 140 76
155 67 7 -5 8 -2 3 6 -6 10 -4 12 8 7 10 -3 17 -3 17 2 0 12 42 28 63 23 9 -2
17 -8 17 -14 0 -5 -6 -8 -14 -5 -17 7 -30 -20 -14 -29 7 -4 8 -3 4 4 -4 7 0
12 11 13 62 3 109 12 193 38 51 17 97 28 102 25 4 -3 8 -1 8 4 0 13 59 33 74
25 6 -3 8 -3 4 2 -10 11 71 47 85 38 6 -4 7 -1 2 7 -6 10 -4 12 9 7 11 -5 15
-3 10 5 -5 8 -2 9 10 5 11 -5 15 -3 10 5 -5 8 -2 9 10 5 9 -4 15 -3 12 2 -7
11 22 23 36 14 7 -3 8 -1 4 6 -4 6 0 14 8 17 34 13 15 26 -28 20 -40 -6 -46
-5 -61 18 -22 34 -110 48 -195 31 -30 -5 -32 -4 -16 6 10 6 44 22 75 34 147
60 238 98 290 122 31 15 58 27 61 28 37 8 79 29 74 37 -4 6 1 8 12 4 11 -3 26
-1 34 4 8 5 11 10 6 10 -5 0 -1 9 9 20 10 11 24 20 32 20 11 0 118 44 241 100
46 22 83 27 66 10 -14 -14 -253 -111 -289 -117 -34 -5 -52 -19 -41 -30 4 -4
11 -1 15 6 5 7 14 10 20 7 6 -4 9 -12 6 -17 -4 -5 0 -9 8 -9 17 0 30 -27 21
-41 -5 -9 -59 -36 -149 -74 -16 -7 -48 -21 -70 -31 -51 -22 -98 -41 -155 -60
-48 -17 -67 -30 -58 -39 3 -4 34 5 68 19 51 21 66 23 84 14 25 -14 77 -18 70
-6 -5 8 17 12 45 9 7 -2 10 2 6 8 -6 11 12 16 50 13 13 -1 16 1 8 6 -15 9 234
105 249 96 7 -5 8 -2 3 6 -6 10 -3 12 13 8 12 -4 20 -2 16 3 -5 8 17 13 32 7
3 -2 10 5 15 15 6 9 15 15 20 11 6 -3 13 4 16 16 4 15 11 20 24 17 12 -3 17
-1 12 6 -4 6 2 8 15 5 12 -4 22 -2 22 3 0 6 8 9 18 7 10 -2 16 2 14 11 -2 11
0 12 10 4 22 -17 50 -24 42 -11 -5 8 -2 9 10 5 9 -4 15 -3 11 2 -7 13 118 53
141 45 16 -5 17 -4 4 6 -12 9 -9 10 15 5 27 -6 28 -5 11 8 -17 13 -13 16 55
42 250 94 374 137 529 184 96 29 200 61 230 71 30 10 80 25 110 33 30 9 125
35 210 60 146 43 455 124 850 222 596 149 765 185 875 185 100 0 266 -35 575
-120 162 -45 331 -91 375 -102 89 -22 311 -109 365 -143 36 -23 96 -84 124
-127 35 -54 110 -318 259 -908 121 -483 132 -572 81 -672 -26 -51 -203 -221
-364 -349 -132 -105 -271 -219 -832 -685 -102 -85 -208 -171 -235 -192 -26
-20 -115 -92 -198 -161 -216 -178 -383 -311 -391 -311 -3 0 0 8 7 18 13 15 12
16 -3 3 -10 -7 -16 -17 -13 -21 8 -12 -43 -53 -56 -45 -7 5 -10 4 -6 -2 5 -9
-79 -85 -183 -166 -8 -7 -50 -41 -92 -75 -47 -39 -82 -61 -89 -56 -7 4 -9 3
-6 -4 9 -14 -89 -96 -104 -86 -7 4 -9 3 -5 -4 8 -13 -43 -54 -57 -45 -5 3 -7
1 -4 -4 9 -14 -161 -146 -175 -137 -6 4 -8 3 -5 -3 9 -14 -19 -37 -33 -28 -5
3 -20 -1 -32 -9 -12 -9 -17 -16 -11 -16 7 0 15 5 18 10 3 6 11 10 18 10 6 0 0
-11 -15 -25 -29 -26 -44 -33 -32 -13 4 7 3 8 -5 4 -6 -4 -9 -11 -6 -16 3 -5
-34 -39 -82 -77 -49 -37 -114 -89 -146 -115 -32 -27 -63 -45 -69 -42 -6 4 -8
2 -5 -4 9 -13 -72 -74 -86 -65 -6 3 -7 1 -4 -4 9 -14 -19 -37 -34 -27 -7 4 -9
3 -6 -3 8 -13 -210 -188 -236 -189 -10 -1 -24 -7 -30 -14 -10 -10 -7 -10 11
-1 12 6 22 10 22 7 0 -9 -103 -81 -112 -78 -5 1 -7 -1 -4 -6 8 -13 -50 -53
-67 -46 -8 3 -18 1 -22 -5 -4 -7 1 -9 12 -5 10 3 -4 -15 -32 -40 -27 -25 -53
-45 -56 -46 -3 0 -19 -11 -34 -24 -16 -14 -33 -23 -37 -20 -5 3 -7 0 -6 -7 2
-8 -8 -14 -25 -14 -16 -1 -32 -7 -37 -14 -4 -8 -13 -10 -21 -6 -11 6 -12 5 -2
-5 10 -11 16 -10 33 5 11 10 22 16 25 13 3 -2 -35 -37 -84 -76 -83 -68 -110
-85 -96 -62 10 16 -1 11 -16 -7 -12 -14 -12 -16 1 -9 8 4 -3 -9 -24 -28 -38
-35 -64 -48 -50 -25 3 6 -5 3 -20 -6 -31 -20 -35 -30 -6 -15 43 23 15 -1 -107
-92 -169 -125 -282 -204 -370 -256 -81 -48 -102 -54 -58 -16 18 15 22 21 9 15
-26 -12 -39 -3 -48 34 -4 17 -25 67 -47 113 -42 88 -45 97 -29 87 6 -3 17 1
26 9 18 18 34 21 34 6 0 -14 13 -12 36 6 18 15 18 15 -8 9 -30 -6 -37 5 -14
24 11 9 20 9 35 2 28 -15 36 -14 21 4 -15 18 -2 39 16 27 6 -4 25 -36 42 -72
18 -37 31 -56 32 -44 0 11 -12 43 -26 72 -30 60 -29 98 1 95 11 -1 14 0 8 3
-28 13 -5 68 23 57 8 -3 14 1 14 11 0 9 8 16 21 16 11 0 17 5 14 10 -11 18 6
50 25 50 23 0 35 16 18 23 -20 8 11 27 45 27 15 0 27 5 27 10 0 6 12 15 27 21
18 7 23 13 15 18 -9 5 -4 14 15 31 18 15 28 19 31 11 7 -20 31 7 25 29 -4 15
0 20 16 20 24 0 27 10 9 29 -11 10 -8 10 15 2 36 -14 37 -14 37 4 0 8 15 19
33 24 17 5 24 10 14 10 -16 1 -16 3 -1 26 9 14 22 25 30 25 19 0 29 21 14 30
-9 5 -9 9 -1 14 6 4 11 2 11 -3 0 -6 4 -11 10 -11 5 0 7 7 4 15 -4 8 -1 15 5
15 6 0 11 -7 11 -16 0 -14 2 -14 15 0 8 8 15 21 15 29 0 8 10 17 22 20 19 5
20 8 7 23 -13 16 -12 16 8 5 19 -9 22 -9 17 3 -4 11 1 14 25 11 28 -4 30 -2
25 23 -4 20 0 33 15 46 12 11 21 14 21 8 0 -7 -4 -12 -10 -12 -5 0 -6 -8 -3
-17 6 -14 9 -11 20 14 7 17 17 34 23 38 5 3 10 14 10 24 0 14 6 17 28 14 15
-3 22 -1 17 4 -6 4 -12 19 -13 33 -1 18 1 21 8 10 7 -12 12 -11 30 5 11 10 18
25 16 32 -7 17 10 17 18 1 4 -7 4 -3 2 10 -2 13 0 20 6 16 6 -4 8 2 3 17 -4
16 -3 20 3 10 7 -10 14 -11 31 -2 12 7 19 16 16 20 -4 8 18 23 37 25 8 1 68
76 68 86 0 3 12 13 28 20 47 24 53 31 41 46 -9 11 -8 14 5 14 9 0 16 -5 16
-11 0 -5 5 -7 11 -4 6 4 8 13 5 20 -8 22 41 47 76 40 21 -5 28 -4 24 4 -4 6
-14 11 -22 11 -9 0 -14 6 -11 13 2 7 18 11 40 9 32 -2 35 -1 31 20 -2 13 -2
17 2 11 3 -7 10 -13 15 -13 6 0 5 9 -1 21 -9 17 -8 23 7 35 10 7 26 14 36 15
9 1 23 2 30 3 6 1 11 12 10 24 -2 12 1 22 6 22 5 0 17 7 25 16 9 8 16 11 16 5
0 -5 -8 -15 -17 -21 -17 -11 -17 -11 0 -6 10 3 26 0 37 -6 23 -15 39 -3 20 15
-10 9 -11 9 -6 0 8 -15 -10 -18 -19 -3 -3 6 -1 10 6 10 8 0 7 5 -2 17 -8 9 8
0 35 -20 28 -21 60 -37 76 -37 28 0 88 38 128 82 23 26 32 82 18 125 -4 14 2
25 21 40 30 22 44 27 41 16 -2 -5 -7 -7 -12 -5 -5 2 -6 -4 -3 -12 4 -10 1 -13
-7 -10 -17 6 -41 -22 -26 -31 6 -3 8 -9 6 -13 -2 -4 2 -13 10 -20 12 -11 14
-10 11 5 -1 10 -6 24 -10 30 -6 9 -3 11 7 7 9 -4 18 0 22 9 3 9 18 18 33 22
18 4 27 13 28 26 2 28 5 30 46 32 25 2 33 6 29 16 -4 10 -1 13 11 8 10 -4 16
-2 14 6 -1 7 7 11 18 9 15 -2 17 -1 6 7 -8 5 -21 7 -30 3 -22 -7 -12 2 30 31
32 22 37 23 48 8 10 -14 11 -14 6 4 -6 26 1 35 57 70 27 17 48 33 48 38 0 4 5
7 11 7 5 0 8 -4 5 -9 -3 -5 5 -8 18 -7 13 0 22 4 19 9 -4 7 12 11 30 8 5 -1 6
3 3 8 -3 5 1 14 9 21 12 10 18 10 32 -1 11 -9 14 -10 9 -2 -4 7 -2 22 4 34 9
15 -4 9 -44 -21 -31 -24 -59 -41 -61 -38 -3 3 16 20 43 39 26 18 54 39 62 46
83 68 104 80 131 77 19 -2 28 1 26 9 -1 8 9 11 28 10 26 -2 28 -1 11 9 -15 8
-26 6 -50 -7 l-31 -18 19 21 c11 12 24 22 29 22 6 0 25 11 43 25 39 30 46 31
37 8 -3 -10 -3 -15 1 -11 4 3 9 14 10 25 3 21 84 86 97 77 5 -3 8 -1 7 4 -2 6
21 29 51 51 54 41 79 52 65 29 -4 -7 -3 -8 4 -4 6 4 9 12 7 19 -2 7 33 35 79
64 114 72 187 130 425 338 114 99 229 196 255 215 71 52 194 158 210 181 8 12
53 61 102 110 79 82 88 88 104 74 42 -38 100 4 100 71 0 33 5 44 30 62 37 28
46 61 26 98 -29 54 -55 77 -89 78 -17 1 -35 5 -38 9 -8 10 -74 29 -114 31 -16
1 -43 8 -60 15 -36 15 -69 7 -101 -24 -21 -21 -23 -27 -12 -51 10 -21 10 -28
1 -31 -7 -3 -9 -11 -6 -19 4 -10 0 -12 -11 -8 -10 4 -16 1 -16 -8 0 -24 -114
-132 -157 -149 -13 -5 -23 -16 -23 -24 0 -9 -10 -20 -22 -25 -13 -5 -17 -9
-10 -9 6 -1 12 -12 12 -25 0 -15 7 -26 18 -28 33 -9 22 -45 -11 -39 -5 1 -6
-3 -3 -8 3 -4 -44 -41 -105 -81 -60 -40 -112 -77 -115 -82 -6 -10 47 24 264
170 83 56 152 105 152 108 0 3 -19 -8 -42 -24 -58 -39 -92 -57 -84 -43 10 15
-7 14 -22 -1 -8 -8 -12 -8 -12 -1 0 13 28 25 41 18 5 -3 32 9 61 28 29 18 59
32 67 29 8 -3 11 0 7 6 -3 5 2 9 12 8 9 0 16 4 15 9 -1 6 12 12 28 13 34 3 37
-8 8 -28 -12 -8 -27 -20 -33 -25 -6 -6 -28 -21 -48 -35 -21 -14 -38 -29 -38
-33 0 -5 -5 -5 -12 -1 -7 4 -8 3 -4 -4 8 -13 78 17 91 38 4 6 15 8 24 5 11 -3
24 2 32 12 11 15 11 16 -1 6 -8 -7 -18 -13 -24 -13 -5 0 -1 7 10 15 10 8 29
15 42 15 27 0 30 -35 4 -65 -24 -27 -77 -56 -87 -47 -5 4 -5 2 -1 -5 8 -14
-27 -36 -39 -25 -5 4 -5 1 -1 -5 4 -8 1 -13 -8 -13 -9 0 -16 -5 -16 -11 0 -6
-7 -8 -16 -5 -8 3 -12 2 -9 -4 3 -5 -16 -21 -42 -36 -27 -16 -50 -31 -53 -34
-3 -3 -85 -59 -184 -125 -98 -66 -186 -126 -196 -133 -16 -12 -19 -9 -30 23
-11 32 -10 37 12 55 12 11 30 17 38 14 11 -4 10 0 -3 13 -17 16 -19 17 -30 2
-18 -24 -50 -31 -83 -19 l-28 11 32 21 c34 21 41 31 20 26 -22 -4 -57 12 -54
25 1 7 1 9 -1 5 -9 -16 -26 -7 -74 36 -72 65 -131 91 -204 90 -114 -1 -295
-94 -401 -206 -69 -73 -81 -99 -65 -141 10 -25 121 -115 186 -150 34 -18 29
-22 -9 -7 -17 6 -26 6 -26 -1 0 -6 -6 -6 -19 1 -15 8 -19 7 -17 -6 4 -26 34
-38 65 -25 25 11 25 11 6 -4 -12 -10 -29 -14 -43 -10 -15 4 -21 2 -17 -4 3 -6
0 -21 -7 -33 -24 -45 -15 -47 40 -11 32 20 85 54 120 75 35 21 107 68 160 103
88 59 128 75 144 59 7 -6 -39 -54 -51 -54 -5 0 -12 -7 -15 -16 -3 -8 -10 -13
-14 -10 -5 3 -20 -6 -35 -20 -15 -14 -27 -22 -27 -19 0 4 -7 0 -15 -8 -8 -8
-30 -25 -50 -37 -41 -25 -45 -38 -11 -36 13 0 22 5 18 10 -3 5 3 6 14 2 10 -4
15 -4 12 0 -10 10 11 46 23 39 5 -4 6 -11 3 -17 -4 -7 -2 -8 5 -4 6 4 8 12 5
18 -5 7 -1 9 9 5 11 -4 14 -2 11 7 -6 15 22 30 37 20 5 -3 8 0 7 8 -2 7 3 12
10 10 6 -1 12 3 12 9 0 5 5 7 10 4 6 -3 10 1 10 11 0 11 6 15 20 11 10 -3 18
0 17 5 -1 6 8 12 21 14 19 3 22 -1 22 -26 0 -23 -8 -35 -34 -52 -18 -13 -60
-42 -94 -65 -33 -23 -62 -40 -65 -37 -3 3 -10 -3 -15 -13 -6 -10 -28 -27 -49
-38 -21 -11 -42 -25 -48 -31 -5 -5 -77 -55 -160 -109 -82 -55 -152 -102 -155
-105 -3 -4 -12 -10 -20 -14 -24 -11 -40 -21 -312 -203 -252 -168 -259 -171
-293 -162 -31 9 -40 7 -79 -20 -35 -25 -43 -35 -39 -53 3 -17 0 -14 -12 8 -9
17 -27 37 -41 44 -25 14 -33 32 -11 29 16 -3 97 34 97 44 0 5 -5 5 -10 2 -7
-4 -9 2 -5 17 4 16 0 29 -12 40 -22 18 -77 38 -108 38 -13 0 -42 9 -66 20 -24
11 -57 20 -72 20 -51 0 -183 -81 -173 -107 3 -7 1 -13 -4 -13 -15 0 0 -31 43
-90 40 -54 40 -55 7 -25 -18 17 -29 23 -25 15 18 -29 13 -50 -12 -50 -23 0
-34 -20 -10 -20 6 -1 -1 -8 -18 -17 -16 -8 -39 -23 -50 -32 -11 -9 -33 -23
-50 -31 -16 -8 -38 -23 -49 -33 -10 -10 -25 -16 -33 -13 -8 3 -11 1 -8 -4 3
-5 20 -7 38 -4 36 5 1 -6 -223 -72 -275 -81 -592 -217 -826 -355 -49 -29 -236
-146 -416 -260 -448 -285 -535 -338 -542 -332 -3 4 -6 1 -6 -4 0 -6 -22 -25
-49 -42 -58 -35 -75 -62 -68 -106 6 -35 84 -166 172 -289 56 -79 64 -93 44
-80 -6 3 -3 -6 7 -21 l18 -28 -24 13 c-19 9 -22 9 -13 0 7 -8 8 -22 2 -42 -10
-36 5 -125 26 -148 19 -21 19 -41 0 -34 -11 5 -15 -1 -15 -24 0 -25 3 -29 24
-25 27 6 44 -13 27 -30 -16 -16 -14 -27 5 -27 8 0 31 -12 50 -26 19 -15 34
-21 34 -15 0 8 6 8 20 -1 16 -10 23 -9 42 9 23 20 61 43 73 43 3 0 4 -8 1 -17
-3 -10 -1 -25 4 -33 9 -13 12 -13 24 3 7 9 17 17 21 17 4 0 13 7 19 15 11 14
130 46 171 46 11 0 30 10 43 22 20 18 26 20 44 8 19 -12 20 -11 15 9 l-6 22
22 -20 c12 -11 32 -23 45 -27 15 -4 22 -14 22 -31 0 -23 1 -24 16 -10 8 9 27
16 40 16 20 0 25 -4 22 -22 -2 -19 4 -25 37 -33 61 -15 56 -38 -12 -65 -59
-22 -224 -80 -230 -80 -3 0 -2 4 1 8 2 4 -18 9 -45 10 -28 1 -48 -2 -45 -7 3
-5 15 -7 25 -4 21 5 39 -15 19 -22 -57 -22 -147 -42 -141 -32 3 7 -2 5 -13 -4
-10 -9 -34 -21 -53 -28 -41 -14 -44 -14 -36 -1 3 5 15 10 26 10 10 0 19 5 19
11 0 6 -7 8 -16 5 -9 -3 -25 -6 -35 -6 -11 0 -18 -4 -14 -9 3 -5 -5 -11 -17
-13 -13 -2 -22 -8 -21 -14 2 -11 -160 -50 -395 -95 -130 -24 -166 -28 -178
-18 -8 6 -18 8 -22 4 -4 -4 0 -10 8 -13 8 -3 -82 -29 -200 -58 -118 -29 -217
-50 -219 -48 -2 2 1 4 8 4 7 0 9 5 6 10 -3 6 -13 10 -20 10 -11 0 -12 -6 -5
-26 8 -21 8 -25 -4 -21 -10 4 -12 0 -8 -15 3 -14 1 -19 -6 -14 -8 5 -10 2 -6
-8 3 -9 13 -16 21 -16 8 0 12 4 9 9 -3 5 1 14 9 21 19 16 19 9 0 -37 -19 -45
-19 -53 1 -53 16 0 16 -11 -1 -52 -5 -14 -2 -18 15 -18 14 0 19 4 14 13 -6 9
-4 9 8 -1 11 -9 17 -10 20 -2 2 7 4 -9 6 -34 1 -34 -3 -48 -16 -56 -23 -14 22
-5 103 21 33 10 87 25 120 33 33 8 86 22 118 30 32 9 63 13 69 10 7 -4 8 -2 4
4 -4 7 -6 12 -4 12 3 0 180 24 255 34 31 4 29 3 -12 -8 -27 -8 -68 -15 -90
-16 -25 -2 -32 -4 -17 -7 12 -2 20 -8 17 -13 -3 -5 -20 -4 -38 1 -42 12 -53
11 -40 -2 7 -7 46 -12 95 -12 l83 0 -85 -12 -85 -12 55 -3 c46 -2 38 -4 -45
-11 -199 -18 -365 -39 -499 -64 -160 -29 -244 -31 -315 -8 -144 46 -225 219
-166 353 10 25 38 74 61 110 73 114 187 329 284 535 156 330 306 620 367 708
119 172 265 318 443 444 167 118 274 187 265 172 -9 -14 52 21 67 39 8 9 7 11
-6 6 -17 -7 -70 22 -62 34 3 4 -5 9 -17 9 -24 2 -23 1 38 -43 16 -11 17 -16 6
-26 -9 -8 -11 -9 -7 -1 7 13 -58 62 -156 117 -38 21 -68 40 -68 42 0 5 43 -16
111 -57 28 -16 54 -28 56 -25 3 2 -7 12 -21 20 -14 9 -38 23 -52 32 -15 9 -23
21 -20 30 6 17 -31 64 -51 64 -7 0 -13 6 -13 13 0 12 -76 96 -115 127 -17 14
-18 13 -12 -2 9 -24 2 -23 -23 4 -27 29 -27 4 0 -40 11 -17 15 -32 10 -32 -6
0 -19 -9 -29 -19 -17 -17 -21 -18 -32 -5 -6 8 -16 14 -22 14 -6 0 0 -12 14
-27 22 -26 22 -26 -9 2 -18 16 -39 42 -46 57 -13 25 -13 26 4 16 24 -15 53 7
45 33 -5 15 -1 19 15 19 12 0 18 5 15 10 -3 6 -19 10 -35 10 -33 0 -49 18 -29
31 11 7 10 9 -3 9 -10 0 -18 6 -18 13 0 7 -31 41 -70 76 -38 35 -70 67 -70 71
0 10 -43 56 -202 222 -71 72 -128 138 -128 145 0 8 -4 11 -10 8 -6 -4 -7 1 -3
11 5 14 3 16 -11 11 -14 -6 -17 -3 -12 8 3 10 2 13 -5 10 -10 -7 -47 33 -61
64 -4 11 -7 6 -7 -14 -1 -16 14 -77 33 -135 19 -58 44 -136 56 -175 12 -38 24
-77 27 -85 4 -11 3 -12 -7 -3 -12 11 -96 266 -129 390 -9 35 -21 63 -28 63 -6
0 -13 4 -15 9 -5 15 -378 391 -378 381 0 -4 6 -10 13 -13 6 -2 9 -8 4 -13 -4
-4 -15 3 -24 17 -9 13 -50 59 -92 102 -55 56 -77 74 -84 65 -6 -9 -7 -8 -3 4
3 12 -12 35 -49 74 -30 31 -55 58 -55 60 0 7 -167 174 -174 174 -4 0 -4 -9 -1
-20 4 -11 2 -20 -4 -20 -6 0 -11 -5 -11 -11 0 -6 9 -9 20 -6 13 3 20 0 20 -9
0 -8 -8 -14 -17 -14 -15 0 -14 -2 3 -14 24 -18 51 -2 33 20 -23 28 1 13 35
-21 20 -19 33 -41 30 -48 -2 -7 2 -21 10 -32 9 -11 16 -15 16 -8 0 6 -5 15
-10 18 -5 3 -10 10 -10 16 0 18 39 -15 45 -38 3 -13 12 -23 20 -23 17 0 19
-18 5 -55 -6 -15 -7 -32 -3 -38 5 -7 10 2 14 23 5 29 7 32 13 15 4 -11 14 -34
22 -50 8 -17 12 -38 9 -47 -4 -11 1 -21 13 -29 11 -7 18 -19 15 -26 -3 -7 0
-13 6 -13 6 0 11 -6 11 -13 0 -7 13 -34 30 -60 16 -26 33 -59 36 -75 7 -27 7
-27 -15 -8 -11 11 -19 21 -16 24 2 3 -7 18 -20 34 -14 16 -25 33 -25 38 0 4
-8 6 -19 3 -10 -3 -22 1 -27 8 -5 9 -2 11 9 6 21 -8 22 3 2 29 -14 19 -14 18
-15 -3 0 -13 -5 -23 -11 -23 -5 0 -8 -4 -5 -9 3 -5 0 -14 -8 -20 -11 -9 -17
-8 -29 4 -9 8 -25 15 -36 15 -15 0 -21 6 -21 21 0 11 -10 30 -23 41 l-22 19
33 -5 c39 -7 42 1 6 14 -18 7 -24 15 -20 26 8 22 -25 56 -44 44 -13 -8 -12
-10 3 -10 23 0 22 -12 -3 -33 -19 -16 -20 -16 -20 9 0 14 -14 43 -31 64 -23
28 -29 43 -22 52 6 7 13 25 17 41 4 17 13 27 25 27 32 0 -64 94 -98 96 -22 1
-27 -3 -27 -20 1 -17 -5 -21 -33 -22 -32 0 -66 -27 -56 -44 3 -4 -11 -11 -30
-14 -20 -4 -33 -11 -30 -16 3 -4 1 -19 -4 -33 -7 -19 -15 -23 -34 -20 -21 4
-25 0 -34 -36 -8 -29 -8 -41 1 -44 6 -2 8 -8 4 -12 -4 -4 -23 0 -43 9 -20 10
-41 15 -48 12 -7 -2 -4 -5 6 -5 9 -1 17 -6 17 -12 0 -7 -9 -9 -22 -6 -12 4
-28 1 -35 -4 -13 -11 -33 -4 -33 12 0 5 7 9 15 9 17 0 20 16 6 24 -17 11 -37
-4 -49 -36 -11 -29 -13 -30 -57 -26 -49 6 -59 -7 -29 -36 10 -10 11 -16 4 -16
-8 0 -10 -8 -7 -21 7 -26 -2 -51 -15 -43 -5 3 -5 11 2 19 8 10 8 15 0 20 -8 5
-8 11 1 21 9 11 8 14 -5 14 -9 0 -16 7 -16 15 0 22 -23 18 -38 -5 -7 -12 -24
-20 -40 -21 -26 0 -26 -1 -5 -11 17 -8 25 -7 38 5 8 9 22 14 30 11 18 -7 20
-24 3 -25 -7 -1 -17 -2 -23 -4 -5 -1 -29 -3 -52 -3 -24 -1 -43 -7 -43 -12 0
-6 -5 -16 -10 -23 -70 -83 -91 -135 -51 -122 21 6 34 -14 21 -35 -7 -11 -11
-11 -26 1 -16 12 -17 12 -11 -4 5 -12 3 -16 -5 -11 -11 7 -9 -10 8 -50 5 -14
4 -17 -4 -12 -7 4 -12 2 -12 -3 0 -12 11 -14 34 -5 17 7 22 34 6 34 -5 0 -10
7 -10 15 0 8 5 15 10 15 6 0 10 -7 10 -15 0 -8 7 -15 15 -15 8 0 15 5 15 10 0
6 8 10 18 10 16 -1 16 -1 -1 -14 -9 -7 -17 -18 -17 -24 0 -6 -9 -14 -21 -17
-11 -4 -18 -12 -15 -18 20 -49 33 -66 44 -62 7 3 10 0 7 -5 -8 -13 16 -91 26
-84 5 3 9 -4 9 -15 0 -11 5 -23 11 -26 6 -4 8 -13 5 -21 -3 -8 1 -17 9 -20 8
-4 15 -19 15 -34 0 -16 4 -31 9 -34 8 -6 21 -86 13 -86 -12 0 -32 32 -32 52
l0 23 -19 -24 c-13 -17 -20 -20 -26 -11 -4 6 -2 17 4 23 6 6 11 22 11 35 0 21
-2 22 -15 12 -8 -7 -15 -20 -15 -30 0 -9 -9 -25 -21 -36 -20 -18 -21 -18 -35
1 -14 19 -14 19 -14 -1 0 -10 8 -41 17 -68 14 -38 15 -50 6 -53 -20 -7 -17
-83 3 -83 8 0 12 -4 9 -10 -4 -6 -13 -5 -26 3 -16 9 -20 21 -17 54 2 22 0 39
-4 36 -13 -7 -9 -88 5 -102 8 -9 9 -15 1 -18 -6 -2 -26 -15 -44 -28 -22 -16
-41 -22 -59 -19 -37 7 -84 -38 -78 -74 2 -15 2 -21 0 -14 -7 20 -22 14 -29
-13 -6 -24 -7 -24 -20 -8 -7 10 -14 13 -14 7 0 -6 -20 -19 -44 -29 -25 -10
-43 -22 -40 -27 3 -4 -6 -8 -19 -8 -14 0 -30 -7 -37 -15 -7 -8 -26 -15 -42
-15 -32 0 -50 -27 -27 -40 7 -5 10 -12 6 -17 -4 -4 -17 -2 -27 5 -17 10 -20
10 -20 -3 0 -8 6 -15 14 -15 8 0 16 -7 20 -15 3 -8 13 -15 22 -15 10 0 14 5
10 15 -3 8 -1 15 4 15 6 0 10 -9 10 -20 0 -11 5 -20 12 -20 28 0 -7 -15 -50
-21 -34 -5 -13 -7 78 -9 l125 -3 -155 -7 c-85 -4 -357 -9 -605 -11 -412 -4
-453 -3 -482 13 -44 24 -91 85 -108 138 -14 44 -14 42 -12 -75 l2 -120 55 -30
55 -30 501 2 c638 2 842 13 1023 54 192 43 188 41 1143 560 70 38 135 69 144
69 21 0 112 -55 321 -192 433 -285 559 -374 618 -436 50 -52 72 -67 125 -86
64 -22 203 -97 215 -116 3 -5 -23 -28 -57 -51 -206 -139 -321 -239 -441 -383
-133 -157 -228 -328 -474 -851 -101 -215 -212 -424 -276 -518 -21 -32 -53 -88
-70 -125 -29 -61 -32 -75 -32 -167 0 -89 3 -107 28 -160 15 -32 39 -74 53 -92
l25 -33 562 0 c469 1 598 4 777 20 422 37 759 133 967 276 102 70 297 220 438
335 51 42 121 98 156 124 35 26 71 55 79 64 15 16 130 114 265 226 103 85 298
249 375 316 157 135 409 347 453 381 26 20 78 63 115 96 132 117 426 364 525
442 18 14 64 55 102 91 89 85 244 215 304 255 25 17 52 38 60 47 7 10 20 17
27 17 8 0 14 4 14 8 0 20 182 184 485 437 39 33 150 128 247 210 259 222 586
498 712 600 148 119 292 269 338 353 l37 66 1 436 0 435 -56 220 c-77 306
-160 615 -191 710 -89 276 -194 343 -786 506 l-290 79 -531 0 -531 -1 -515
-130z m-3320 -1078 c0 -5 -7 -14 -16 -22 -13 -10 -17 -10 -25 2 -5 8 -9 11 -9
7 0 -3 -3 -14 -6 -22 -4 -12 -2 -15 9 -10 8 3 18 1 21 -4 3 -5 -27 -24 -67
-42 -174 -79 -209 -98 -153 -84 21 5 24 3 19 -15 -7 -29 -11 -31 -178 -105
-82 -37 -164 -74 -182 -82 -17 -8 -34 -14 -37 -14 -3 0 -48 -18 -98 -41 -227
-100 -210 -93 -285 -123 -89 -35 -120 -40 -130 -23 -4 8 -26 25 -48 37 -22 12
-30 20 -18 17 12 -3 23 -2 25 2 2 4 75 38 163 75 88 37 180 77 205 88 25 11
61 26 80 33 19 8 96 40 170 73 74 32 148 62 164 66 15 4 60 22 100 40 121 57
180 83 202 90 12 3 26 18 33 32 6 14 15 23 20 19 5 -3 12 -1 16 5 8 12 25 13
25 1z m-1451 -626 c-3 -2 -92 -43 -199 -91 -199 -88 -251 -112 -608 -273 -111
-50 -205 -91 -207 -91 -2 0 -129 -56 -282 -124 -298 -132 -483 -209 -488 -204
-2 2 65 33 148 70 193 85 337 149 507 227 74 34 275 122 445 196 171 74 391
170 490 214 165 73 207 89 194 76z m7556 -532 c-48 -86 -160 -201 -345 -356
-80 -67 -147 -124 -150 -127 -3 -3 -32 -27 -65 -54 -38 -32 -49 -38 -31 -18
17 18 25 32 19 32 -5 0 -18 -9 -28 -20 -11 -12 -26 -18 -35 -15 -11 3 -20 -1
-24 -10 -3 -8 -17 -20 -31 -25 -17 -6 -25 -16 -23 -27 2 -11 -3 -18 -13 -18
-19 0 -80 -50 -72 -59 3 -3 0 -12 -7 -21 -26 -32 4 -12 80 52 44 36 78 68 75
71 -3 3 -14 -3 -25 -13 -11 -10 -20 -14 -20 -9 0 15 58 46 64 35 5 -7 -93 -98
-209 -192 -11 -10 -50 -42 -87 -74 -38 -31 -68 -54 -68 -51 0 2 40 38 88 80
83 70 108 106 74 106 -8 0 -12 -6 -9 -15 4 -8 1 -17 -5 -21 -7 -4 -8 -3 -4 4
13 21 -6 13 -41 -18 -18 -16 -30 -30 -26 -30 3 0 -6 -14 -22 -30 -16 -17 -36
-29 -44 -28 -9 2 -15 -2 -14 -8 1 -7 -5 -11 -15 -10 -10 0 -16 -5 -14 -14 2
-8 0 -12 -4 -8 -10 11 -35 -12 -27 -25 4 -6 0 -8 -9 -4 -18 6 -74 -46 -64 -61
3 -5 -4 -9 -17 -8 -15 1 -22 -4 -21 -17 1 -12 -2 -15 -10 -8 -8 7 -25 -5 -56
-36 -28 -29 -37 -43 -25 -39 19 7 18 6 -2 -13 -26 -24 -41 -28 -23 -6 7 8 9
15 6 15 -9 0 -104 -77 -129 -104 -9 -11 -19 -17 -22 -14 -5 5 27 35 87 83 22
17 130 111 162 140 11 11 140 118 166 138 72 58 250 209 255 217 4 6 16 8 28
5 17 -5 19 -4 7 4 -8 5 -12 12 -10 14 96 77 136 111 140 117 3 3 30 26 60 49
30 24 71 57 90 75 19 17 69 58 110 91 145 115 332 288 348 321 8 19 18 32 20
29 2 -2 -13 -35 -33 -72z m-2805 -2233 c0 -10 -7 -35 -15 -55 -8 -19 -22 -51
-30 -70 -14 -34 -41 -51 -28 -19 11 29 -21 10 -44 -27 -29 -46 -48 -65 -147
-144 l-49 -40 20 40 c12 22 26 67 33 100 13 60 24 75 93 126 l27 20 0 -23 c-1
-15 -15 -34 -40 -53 -21 -16 -41 -38 -43 -47 -7 -25 2 -22 35 9 15 15 28 22
28 15 0 -6 -20 -30 -45 -53 -46 -43 -59 -67 -27 -50 56 30 112 130 112 197 0
22 77 93 103 94 10 0 17 -7 17 -20z m-276 -217 c-9 -52 -52 -148 -76 -170 -19
-16 -18 -15 2 20 12 21 20 40 17 43 -3 3 -19 -19 -36 -49 -31 -54 -87 -118
-62 -70 6 12 11 32 11 45 -1 16 -10 4 -29 -37 -15 -33 -35 -66 -44 -74 -13
-10 -12 -1 7 40 13 30 27 78 31 106 5 42 13 57 35 73 l28 20 6 -22 c3 -12 3
-33 -1 -47 -4 -16 -2 -22 5 -17 6 4 21 36 32 72 27 89 88 143 74 67z m-252
-228 c3 -14 2 -25 -2 -25 -5 0 -18 -19 -30 -42 -12 -24 -37 -58 -56 -76 -19
-17 -33 -36 -30 -40 3 -4 -9 -13 -26 -20 -24 -9 -29 -9 -20 0 7 7 12 26 12 43
0 51 27 126 56 156 37 39 89 41 96 4z m-1506 -712 c14 -32 30 -67 35 -78 12
-25 8 -87 -6 -97 -15 -11 -27 -10 -20 2 3 6 4 10 1 10 -16 0 -13 -21 5 -30 12
-7 19 -8 15 -2 -8 13 25 25 36 14 5 -5 -3 -14 -21 -22 -36 -14 -46 -14 -46 2
0 7 -20 16 -44 21 -42 8 -43 9 -21 24 11 8 30 13 41 10 13 -3 19 0 19 10 0 13
-8 14 -40 9 -22 -3 -40 -3 -40 2 0 5 -9 18 -20 29 -17 19 -18 26 -7 55 l12 33
6 -40 c6 -38 6 -38 8 -7 1 27 5 32 26 32 19 0 23 4 18 17 -5 13 -2 15 11 10
14 -6 17 -3 12 8 -3 8 -9 22 -12 30 -3 8 -3 15 0 15 3 0 18 -26 32 -57z"/>
<path d="M7340 5870 c-19 -5 -38 -6 -43 -3 -4 2 -7 1 -6 -4 1 -4 -5 -24 -14
-43 -9 -19 -16 -29 -17 -22 0 6 -4 12 -10 12 -5 0 -10 -17 -10 -39 0 -35 25
-82 55 -103 17 -12 -3 -9 -40 6 -29 12 -35 13 -35 2 0 -17 -25 -27 -45 -20 -8
4 -26 -1 -40 -10 -14 -9 -25 -12 -25 -7 0 6 -17 8 -37 6 -21 -2 -42 -4 -46 -4
-5 -1 -5 -5 -2 -11 4 -6 -5 -10 -19 -10 -14 0 -26 5 -26 10 0 6 -4 10 -10 10
-5 0 -10 -6 -10 -14 0 -9 -12 -13 -39 -12 -22 0 -35 4 -28 8 6 4 -8 7 -31 6
-23 0 -42 -5 -42 -10 0 -7 -28 -9 -75 -6 -42 3 -78 2 -80 -2 -3 -5 -21 -4 -42
0 -49 12 -172 1 -199 -17 -18 -11 -23 -11 -27 -1 -4 10 -10 8 -22 -7 -17 -20
-17 -20 -10 3 4 16 2 22 -8 22 -8 0 -17 -6 -20 -14 -4 -9 -15 -12 -34 -8 -26
5 -27 4 -13 -13 14 -17 13 -18 -5 -11 -34 14 -149 46 -160 45 -5 0 15 -9 45
-19 30 -10 93 -32 140 -50 109 -40 300 -109 620 -221 188 -66 270 -90 312 -92
l57 -2 -6 41 c-5 37 -3 44 21 59 19 13 39 16 71 13 24 -3 46 -3 49 -1 2 3 0
18 -6 34 -9 27 -7 32 18 55 27 23 35 25 130 23 91 -2 103 0 124 19 29 27 83
35 204 30 85 -3 96 -1 96 14 0 49 157 57 305 15 63 -18 93 -23 102 -15 12 10
73 1 117 -17 16 -7 18 -4 11 26 -3 19 -15 41 -26 51 -10 9 -19 21 -19 28 0 6
-5 8 -10 5 -14 -9 -80 17 -73 28 3 6 1 7 -4 4 -6 -4 -34 9 -63 28 -29 19 -54
35 -56 35 -1 0 -22 13 -46 29 -49 34 -98 84 -98 100 0 6 -7 11 -15 11 -8 0
-15 -6 -15 -14 0 -22 -14 -26 -51 -16 -29 9 -36 7 -49 -8 -9 -10 -33 -22 -55
-25 -22 -3 -78 -14 -125 -23 -47 -9 -94 -16 -105 -16 -10 1 -24 -2 -30 -7 -5
-4 -32 -8 -59 -9 -27 -1 -52 -5 -55 -10 -6 -9 -15 -10 -93 -14 -27 -2 -48 -6
-48 -9 0 -4 -9 -9 -20 -12 -26 -7 -26 9 0 23 11 6 18 15 14 21 -3 5 0 17 7 25
10 12 9 13 -6 8 -17 -7 -17 -6 0 19 16 26 16 28 -1 55 -10 15 -18 30 -16 34 1
4 -6 4 -15 1 -11 -4 -14 -3 -9 5 8 13 -3 14 -54 2z"/>
<path d="M5390 5379 c0 -11 5 -29 10 -39 9 -16 8 -19 -7 -14 -13 3 -13 2 2 -6
22 -12 45 -54 45 -82 0 -21 8 -22 46 -8 21 8 29 8 36 -2 5 -10 8 -8 8 5 0 20
22 47 38 47 5 0 13 -11 16 -25 4 -14 11 -25 17 -25 6 0 7 -5 4 -10 -4 -7 -14
-3 -25 10 -20 23 -32 26 -29 8 6 -37 -56 -118 -89 -118 -15 0 -92 -77 -92 -92
0 -5 -7 -8 -15 -8 -9 0 -43 -22 -76 -50 -33 -27 -64 -50 -69 -50 -5 0 -12 -9
-15 -20 -4 -11 -30 -32 -58 -46 -29 -15 -53 -30 -55 -35 -2 -5 -12 -9 -23 -9
-10 0 -19 -4 -19 -10 0 -5 -8 -10 -18 -10 -27 0 -62 -28 -56 -45 5 -12 1 -13
-25 -4 -24 8 -35 8 -46 -1 -11 -9 -15 -9 -15 -1 0 8 -5 9 -19 1 -11 -5 -29
-10 -40 -10 -17 0 -21 -6 -21 -31 0 -18 -4 -28 -10 -24 -6 4 -8 15 -5 26 4 13
2 19 -8 19 -8 0 -18 -11 -21 -25 -4 -14 -13 -25 -22 -25 -8 0 -12 5 -9 10 3 6
2 10 -3 10 -6 0 -12 -7 -16 -15 -3 -8 -11 -15 -18 -15 -10 0 -34 -10 -123 -51
-11 -5 -49 -16 -85 -23 -36 -8 -76 -19 -90 -25 -44 -20 -164 -86 -190 -104
-13 -9 -32 -17 -42 -17 -10 0 -18 -4 -18 -10 0 -5 -6 -10 -13 -10 -7 0 -30 -9
-51 -21 -21 -11 -48 -18 -58 -15 -17 4 -19 1 -15 -20 4 -20 2 -22 -10 -12 -12
10 -17 9 -24 -5 -8 -13 -24 -17 -69 -17 -32 0 -62 -4 -65 -10 -3 -5 -21 -10
-40 -10 -19 0 -37 -5 -41 -11 -3 -6 -16 -8 -28 -5 -17 4 -24 -1 -35 -25 -8
-19 -18 -28 -27 -25 -8 3 -19 -3 -26 -13 -9 -15 -15 -17 -29 -8 -13 8 -24 6
-44 -7 -22 -14 -25 -20 -14 -27 9 -6 0 -9 -29 -9 -29 0 -45 -5 -48 -15 -4 -8
-11 -15 -16 -15 -6 0 -17 -8 -24 -17 -13 -16 -13 -15 -5 7 8 23 6 25 -23 27
-25 2 -28 0 -13 -8 28 -16 19 -28 -13 -16 -22 8 -27 14 -18 24 7 9 7 13 -1 13
-6 0 -11 -5 -11 -11 0 -6 -9 -8 -22 -4 -13 4 40 -29 117 -72 77 -44 184 -105
239 -137 54 -31 130 -73 170 -93 122 -62 319 -174 356 -204 37 -30 404 -219
424 -219 6 1 -6 10 -27 21 l-39 20 7 62 c9 73 26 103 70 121 36 15 100 8 168
-19 49 -20 52 -19 28 6 -18 19 -18 23 -5 37 11 10 12 17 4 22 -18 11 -2 54 33
90 25 25 37 31 63 28 18 -2 30 0 28 4 -8 12 7 10 66 -12 30 -11 57 -20 61 -20
3 0 7 23 8 51 4 118 44 136 213 95 57 -13 57 -13 46 8 -22 40 -20 98 5 130 20
24 30 28 77 29 30 0 80 -3 110 -8 47 -7 53 -6 43 6 -12 16 -9 69 7 99 6 11 21
22 33 24 68 14 93 15 133 5 44 -11 71 -5 46 10 -7 4 -14 26 -16 49 -3 33 1 45
20 63 13 12 24 19 24 15 0 -5 6 -3 14 3 21 17 63 19 126 4 72 -17 76 -16 57 5
-33 36 -9 112 34 112 11 0 30 5 41 11 16 9 35 8 75 -1 30 -6 56 -10 58 -8 3 2
-1 21 -7 41 -10 33 -9 40 11 61 38 40 158 42 219 3 7 -5 12 -4 12 2 0 6 -4 11
-9 11 -15 0 -32 56 -26 82 11 43 57 62 139 55 39 -4 89 -9 111 -13 37 -7 39
-6 26 9 -7 10 -10 17 -6 17 4 0 2 6 -4 14 -13 16 12 86 31 86 26 0 -10 19 -98
53 -81 32 -715 270 -889 334 -38 14 -79 29 -90 34 -91 38 -149 58 -156 53 -5
-3 -9 -1 -9 4 0 11 -49 34 -60 27 -4 -3 -13 2 -20 10 -17 21 -30 19 -30 -6z"/>
<path d="M7490 5212 c0 -4 5 -13 11 -19 9 -9 6 -10 -12 -6 -22 6 -23 5 -10
-11 18 -22 8 -31 -19 -16 -12 6 -24 10 -26 7 -13 -13 38 -39 165 -86 111 -41
150 -51 188 -49 43 3 48 6 49 27 1 21 0 22 -10 9 -12 -16 -46 -20 -46 -6 0 5
5 18 10 29 14 26 -2 24 -18 -2 -7 -12 -16 -19 -18 -16 -3 3 3 18 13 33 19 30
8 28 -31 -5 -18 -15 -18 -15 -7 7 17 33 6 40 -18 11 l-20 -24 6 25 c6 23 5 24
-12 10 -16 -14 -17 -13 -11 18 6 26 4 32 -8 32 -9 0 -25 6 -36 13 -17 10 -22
9 -30 -3 -8 -13 -10 -12 -10 4 0 12 -5 16 -14 13 -8 -3 -17 -1 -20 6 -3 9 -6
9 -13 0 -6 -8 -14 -9 -23 -3 -18 12 -30 13 -30 2z"/>
<path d="M8086 4828 c5 -7 2 -9 -9 -5 -9 3 -17 2 -19 -3 -2 -4 -41 -28 -88
-53 -183 -96 -221 -117 -213 -117 4 0 -11 -11 -33 -25 -23 -14 -45 -32 -48
-41 -5 -14 -4 -15 9 -4 8 7 15 10 15 6 0 -3 -14 -15 -32 -26 -23 -14 -36 -16
-50 -9 -19 10 -23 2 -9 -20 5 -7 24 -15 42 -16 19 -2 28 -1 22 2 -25 10 -12
22 17 17 26 -6 50 6 167 83 76 50 166 107 201 128 44 26 62 42 58 52 -3 8 -6
18 -6 23 0 4 -7 11 -16 14 -10 4 -13 2 -8 -6z"/>
<path d="M3145 4074 c4 -10 10 -32 13 -49 3 -16 13 -36 23 -43 11 -7 19 -22
19 -32 0 -10 5 -22 10 -25 6 -3 10 -15 10 -26 0 -10 3 -19 8 -19 4 0 15 -17
24 -38 9 -20 35 -75 57 -122 98 -211 113 -248 90 -234 -6 3 -4 -5 6 -19 9 -14
22 -28 29 -30 7 -3 16 -18 19 -34 7 -35 32 -65 77 -91 19 -10 76 -45 127 -76
50 -31 96 -56 102 -56 6 0 11 -4 11 -8 0 -5 16 -16 36 -25 19 -10 40 -22 47
-28 32 -27 424 -259 439 -259 9 0 23 -6 30 -14 8 -7 25 -17 38 -21 22 -7 23
-6 12 8 -8 9 -10 25 -6 41 4 18 0 33 -14 51 -12 15 -24 46 -28 71 -3 24 -10
44 -14 44 -4 0 -10 18 -13 41 -3 22 -12 48 -20 57 -8 9 -17 31 -19 47 -7 46
-12 58 -26 73 -7 8 -9 24 -6 38 3 13 2 24 -4 24 -13 0 -32 98 -19 103 15 5
-27 86 -67 132 -31 35 -38 38 -55 28 -17 -10 -38 -2 -158 66 -76 43 -268 151
-428 240 -159 90 -305 173 -324 184 -33 20 -34 20 -26 1z"/>
<path d="M7715 3659 c-4 -12 -12 -18 -21 -15 -8 3 -14 2 -14 -3 0 -4 -10 -12
-22 -18 -13 -6 -67 -42 -122 -79 -54 -38 -105 -74 -115 -79 -58 -36 -198 -131
-208 -141 -7 -7 -26 -18 -43 -26 -16 -7 -30 -16 -30 -20 0 -5 -5 -8 -10 -8 -6
0 -32 -17 -59 -37 -27 -21 -61 -46 -77 -55 -16 -9 -76 -48 -133 -87 -56 -39
-107 -71 -111 -71 -4 0 -10 -6 -13 -14 -4 -9 -16 -13 -31 -12 -20 3 -24 0 -16
-10 8 -9 6 -14 -9 -19 -12 -3 -21 -13 -21 -21 0 -13 80 36 118 73 7 7 28 20
47 29 19 9 35 21 35 26 0 5 5 6 10 3 6 -3 10 -2 10 3 0 4 20 19 45 33 93 49
104 56 100 61 -3 3 11 13 30 24 19 10 35 23 35 27 0 5 7 6 16 3 12 -5 15 -2
10 10 -4 11 -2 15 8 11 7 -3 23 3 34 14 12 10 25 19 30 19 5 0 15 7 22 15 7 9
39 30 71 48 33 19 56 37 52 40 -3 4 -1 7 5 7 6 0 74 43 151 95 78 52 146 95
152 95 5 0 7 5 4 10 -3 6 -1 10 5 10 20 0 90 50 90 65 0 22 -18 18 -25 -6z"/>
</g>
</svg>
