<?xml version="1.0" standalone="no"?><!DOCTYPE svg PUBLIC "-//W3C//DTD SVG 1.1//EN" "http://www.w3.org/Graphics/SVG/1.1/DTD/svg11.dtd"><svg class="icon" height="512" viewBox="0 0 1024 1024" version="1.1" xmlns="http://www.w3.org/2000/svg"><path d="M867.968 572.8c-17.664 0-33.728 14.336-33.728 32 0 147.392-194.176 268.8-322.176 285.824L512.064 576l158.464 0c18.176 0 32.896-13.952 32.896-32.192 0-18.112-14.656-30.272-32.896-31.808L512 512 512 380.8c64-14.656 130.176-79.232 130.176-156.8 0-88.384-70.72-160-159.104-160S321.344 135.616 321.344 224C321.344 301.568 384 366.144 448 380.8L448 512 297.408 512C279.296 513.536 264.576 525.696 264.576 543.808 264.576 562.048 279.296 576 297.408 576L448 576l0 314.624C320 873.6 129.728 752.192 129.728 604.8c0-17.664-13.248-32-30.912-32s-31.488 14.336-31.488 32c0 204.16 248.768 352 416.256 352 167.552 0 416.128-147.84 416.128-352C899.84 587.136 885.632 572.8 867.968 572.8zM387.968 224c0-52.928 43.072-96 96-96s96 43.072 96 96S536.896 320 483.968 320 387.968 276.928 387.968 224z" /></svg>