<?xml version="1.0" standalone="no"?>
<!DOCTYPE svg PUBLIC "-//W3C//DTD SVG 20010904//EN"
 "http://www.w3.org/TR/2001/REC-SVG-20010904/DTD/svg10.dtd">
<svg version="1.0" xmlns="http://www.w3.org/2000/svg"
 width="240.000000pt" height="480.000000pt" viewBox="0 0 240.000000 480.000000"
 preserveAspectRatio="xMidYMid meet">
<metadata>
Created by potrace 1.15, written by Peter Selinger 2001-2017
</metadata>
<g transform="translate(0.000000,480.000000) scale(0.100000,-0.100000)"
fill="#000000" stroke="none">
<path d="M817 4666 c-21 -52 -48 -103 -60 -114 -12 -11 -74 -48 -137 -82 -195
-105 -218 -121 -254 -175 -18 -28 -91 -170 -161 -315 l-127 -265 -14 -150 c-8
-82 -17 -254 -20 -381 -5 -224 -4 -235 20 -331 39 -153 95 -326 111 -343 19
-18 84 -16 124 4 32 17 63 54 56 67 -3 4 -12 39 -20 79 -15 71 -15 77 15 243
17 93 35 180 41 194 5 13 9 43 9 66 0 70 57 385 88 487 26 83 30 91 35 65 29
-139 57 -320 53 -331 -3 -8 -2 -12 3 -9 15 9 23 -95 13 -160 -6 -33 -27 -154
-48 -270 -36 -208 -37 -213 -36 -469 1 -247 2 -263 27 -349 21 -72 24 -96 16
-115 -20 -42 -23 -339 -10 -867 7 -286 13 -578 14 -650 2 -72 6 -144 10 -162
5 -22 2 -38 -9 -55 -42 -59 -6 -101 152 -177 84 -41 145 -63 194 -71 90 -16
196 -6 222 19 33 34 14 70 -98 177 -107 104 -140 151 -130 189 3 13 -1 36 -10
53 -15 28 -14 34 6 78 17 39 26 101 45 304 12 140 23 282 22 315 -1 37 5 71
14 89 8 15 23 72 33 125 9 53 27 130 39 171 13 41 40 162 61 268 21 105 41
192 44 192 9 0 81 -264 90 -330 8 -54 9 -185 7 -625 0 -22 1 -53 3 -70 3 -35
-24 -240 -41 -305 -6 -25 -8 -72 -5 -107 5 -50 3 -63 -9 -70 -28 -16 -30 -77
-5 -118 27 -44 53 -57 160 -80 117 -25 436 -26 474 -2 30 20 40 48 32 92 -6
28 -13 35 -54 50 -26 9 -76 23 -112 30 -36 7 -72 16 -81 19 -19 8 -30 47 -18
68 10 18 41 192 45 253 4 61 19 164 40 266 8 43 17 146 19 230 2 85 9 204 15
264 6 61 12 189 13 285 1 158 -2 187 -27 300 -39 173 -88 332 -141 453 -29 65
-51 134 -60 189 -9 48 -26 118 -38 155 -20 63 -22 87 -22 328 0 143 -4 279 -9
303 -5 26 -5 42 1 42 5 0 74 -81 154 -181 198 -249 272 -311 528 -441 105 -54
199 -98 210 -98 27 0 65 63 55 92 -3 13 -23 41 -43 63 -46 52 -129 158 -160
204 -13 20 -73 86 -133 146 -88 89 -115 124 -145 185 -19 41 -48 93 -63 115
-15 22 -25 45 -23 52 6 17 -33 89 -52 97 -10 4 -14 13 -11 24 4 11 -15 62 -49
130 -30 62 -64 136 -76 165 -36 85 -63 113 -174 178 -62 35 -102 65 -98 71 3
7 1 8 -5 4 -6 -4 -29 3 -51 16 l-39 22 13 46 c18 62 17 105 -3 124 -49 44
-270 116 -356 116 l-51 0 -38 -94z"/>
</g>
</svg>
