<?xml version="1.0" encoding="utf-8"?>
<!-- Svg Vector Icons : http://www.onlinewebfonts.com/icon -->
<!DOCTYPE svg PUBLIC "-//W3C//DTD SVG 1.1//EN" "http://www.w3.org/Graphics/SVG/1.1/DTD/svg11.dtd">
<svg version="1.1" xmlns="http://www.w3.org/2000/svg" xmlns:xlink="http://www.w3.org/1999/xlink" x="0px" y="0px" viewBox="0 0 1000 1000" enable-background="new 0 0 1000 1000" xml:space="preserve">
<metadata> Svg Vector Icons : http://www.onlinewebfonts.com/icon </metadata>
<g><g transform="translate(0.000000,511.000000) scale(0.100000,-0.100000)"><path d="M3442.9,4974.5c-177.8-42.8-276.5-98.8-595.9-342.4c-355.5-273.2-576.1-378.6-790.1-378.6h-161.3l79-85.6c102.1-108.6,490.5-293,714.4-339.1c352.2-72.4,734.1-36.2,1069.9,105.3c141.6,59.3,154.7,128.4,72.4,398.3c-56,187.6-62.5,404.9-16.5,533.3C3870.8,5007.4,3742.4,5046.9,3442.9,4974.5z"/><path d="M4242.8,4108.7c0-6.6,46.1-118.5,98.8-253.5c243.6-586,418.1-1330,497.1-2083.8c49.4-493.8,19.8-1800.7-49.4-2324.2c-69.1-500.4-230.4-1300.4-329.2-1646c-46.1-151.4-79-283.1-72.4-286.4c3.3-3.3,148.1,95.5,316,220.6c1270.7,934.9,2462.4,1135.7,3318.3,559.6l187.6-128.4l29.6,105.3c49.4,181.1-3.3,1251-79,1702C7903.6,1452.1,7189.2,2640.5,6139,3345c-483.9,322.6-1125.9,605.7-1652.6,727.5C4252.7,4125.2,4242.8,4128.5,4242.8,4108.7z"/><path d="M4111.2,2271.8c0-85.6-279.8-911.9-464.2-1372.8C3192.7-240.1,2642.9-1191.4,2001-1955.2l-256.8-302.9l121.8-19.7c273.2-46.1,905.3-85.6,1313.5-85.6h434.5l98.8,306.2C4015.7-1105.8,4196.8-82,4233,895.7c19.7,536.6-29.6,1277.3-92.2,1382.6C4117.7,2321.1,4114.5,2321.1,4111.2,2271.8z"/><path d="M259.5-3186.4V-3351H5000h4740.5v164.6v164.6H5000H259.5V-3186.4z"/><path d="M769.8-3614.4c-240.3-56-428-250.2-464.2-480.6c-92.2-618.9,681.5-951.4,1060-454.3C1550-4309,1494-3887.6,1257-3719.7C1115.4-3621,921.2-3578.1,769.8-3614.4z"/><path d="M2481.6-3597.9c-16.5-6.6-72.4-19.7-121.8-29.6c-121.8-26.4-322.6-207.4-375.3-339.1c-105.3-250.2-6.6-572.8,227.1-727.5c279.8-187.6,691.3-79,846.1,223.9c141.5,279.8,42.8,635.4-220.6,776.9C2715.3-3624.2,2547.5-3581.5,2481.6-3597.9z"/><path d="M4058.5-3614.4c-381.9-85.6-579.4-487.2-408.2-839.5c210.7-434.6,836.2-444.4,1053.4-16.5C4927.6-4032.5,4532.5-3505.7,4058.5-3614.4z"/><path d="M5704.5-3614.4c-516.9-115.2-641.9-786.8-204.1-1076.5c289.7-194.2,694.6-85.6,846.1,227.2c115.2,243.6,82.3,480.6-88.9,661.7C6102.8-3637.4,5902-3568.3,5704.5-3614.4z"/><path d="M7353.8-3614.4c-395-88.9-592.6-500.4-411.5-852.6c217.3-431.3,839.5-428,1050.2,3.3c115.2,243.6,82.3,480.6-88.9,661.7C7748.8-3637.4,7544.7-3568.3,7353.8-3614.4z"/><path d="M8970.2-3617.7c-464.2-105.3-612.3-724.2-243.6-1033.7c348.9-293,911.9-79,971.2,372C9753.7-3871.1,9375.1-3528.8,8970.2-3617.7z"/></g></g>
</svg>