<svg xmlns="http://www.w3.org/2000/svg" height="511pt" version="1.1" viewBox="0 -112 511.99989 511" width="511pt">
<g id="surface1">
<path d="M 510.847656 180.363281 C 509.378906 178.027344 506.757812 176.6875 504 176.871094 L 351.675781 187.027344 L 351.675781 119.710938 L 360.210938 119.710938 C 364.351562 119.710938 367.710938 116.351562 367.710938 112.210938 C 367.710938 108.070312 364.351562 104.710938 360.210938 104.710938 L 255.484375 104.710938 L 255.484375 46.332031 C 264.792969 43.195312 271.515625 34.386719 271.515625 24.03125 C 271.515625 11.058594 260.960938 0.5 247.984375 0.5 C 235.007812 0.5 224.453125 11.058594 224.453125 24.03125 C 224.453125 34.386719 231.175781 43.191406 240.484375 46.332031 L 240.484375 104.710938 L 183.855469 104.710938 C 170.878906 104.710938 160.324219 115.269531 160.324219 128.242188 L 160.324219 199.785156 L 142.671875 200.960938 C 139.089844 178.25 119.382812 160.824219 95.675781 160.824219 C 69.824219 160.824219 48.734375 181.554688 48.125 207.265625 L 30.515625 208.4375 C 22.394531 208.980469 16.03125 215.78125 16.03125 223.917969 L 16.03125 273.050781 L 7.5 273.050781 C 3.359375 273.050781 0 276.40625 0 280.550781 C 0 284.691406 3.359375 288.050781 7.5 288.050781 L 472.4375 288.050781 C 476.578125 288.050781 479.9375 284.691406 479.9375 280.550781 C 479.9375 276.40625 476.578125 273.050781 472.4375 273.050781 L 463.042969 273.050781 L 511.03125 188.042969 C 512.386719 185.644531 512.316406 182.695312 510.847656 180.363281 Z M 247.984375 15.5 C 252.6875 15.5 256.515625 19.328125 256.515625 24.035156 C 256.515625 28.738281 252.6875 32.566406 247.984375 32.566406 C 243.28125 32.566406 239.453125 28.738281 239.453125 24.035156 C 239.453125 19.328125 243.277344 15.5 247.984375 15.5 Z M 336.675781 152.808594 L 303.578125 152.808594 L 303.578125 119.710938 L 336.675781 119.710938 Z M 288.582031 119.710938 L 288.582031 152.808594 L 255.484375 152.808594 L 255.484375 119.710938 Z M 240.484375 152.808594 L 223.9375 152.808594 C 223.652344 152.808594 223.421875 152.578125 223.421875 152.292969 L 223.421875 119.710938 L 240.484375 119.710938 Z M 175.324219 128.242188 C 175.324219 123.539062 179.152344 119.710938 183.855469 119.710938 L 208.417969 119.710938 L 208.417969 152.292969 C 208.417969 160.847656 215.378906 167.808594 223.933594 167.808594 L 336.675781 167.808594 L 336.675781 188.027344 L 175.324219 198.785156 Z M 128.257812 208.40625 C 128.257812 214.675781 126.472656 220.535156 123.390625 225.511719 L 110.574219 212.695312 C 110.96875 211.332031 111.191406 209.894531 111.191406 208.40625 C 111.191406 199.847656 104.234375 192.890625 95.675781 192.890625 C 94.1875 192.890625 92.75 193.113281 91.386719 193.507812 L 78.570312 180.691406 C 83.546875 177.609375 89.40625 175.824219 95.675781 175.824219 C 113.644531 175.824219 128.257812 190.441406 128.257812 208.40625 Z M 67.964844 191.300781 L 80.777344 204.113281 C 80.386719 205.476562 80.160156 206.914062 80.160156 208.40625 C 80.160156 216.960938 87.121094 223.921875 95.679688 223.921875 C 97.167969 223.921875 98.605469 223.699219 99.96875 223.304688 L 112.785156 236.117188 C 107.808594 239.199219 101.949219 240.984375 95.679688 240.984375 C 77.714844 240.984375 63.097656 226.371094 63.097656 208.40625 C 63.097656 202.132812 64.882812 196.273438 67.964844 191.300781 Z M 31.515625 223.40625 L 50.132812 222.164062 C 52.289062 229.285156 56.074219 235.699219 61.050781 240.984375 L 31.03125 240.984375 L 31.03125 223.921875 C 31.03125 223.648438 31.242188 223.425781 31.515625 223.40625 Z M 463.921875 240.984375 L 440.371094 240.984375 C 436.230469 240.984375 432.871094 244.34375 432.871094 248.484375 C 432.871094 252.625 436.230469 255.984375 440.371094 255.984375 L 455.453125 255.984375 L 445.820312 273.050781 L 31.03125 273.050781 L 31.03125 255.984375 L 408.308594 255.984375 C 412.449219 255.984375 415.808594 252.625 415.808594 248.484375 C 415.808594 244.34375 412.449219 240.984375 408.308594 240.984375 L 130.304688 240.984375 C 136.683594 234.210938 141.101562 225.582031 142.644531 215.996094 L 491.140625 192.761719 Z M 463.921875 240.984375 " style=" stroke:none;fill-rule:nonzero;fill:rgb(0%,0%,0%);fill-opacity:1;" />
</g>
</svg>