<?xml version="1.0" standalone="no"?><!DOCTYPE svg PUBLIC "-//W3C//DTD SVG 1.1//EN" "http://www.w3.org/Graphics/SVG/1.1/DTD/svg11.dtd"><svg class="icon" height="512" viewBox="0 0 1024 1024" version="1.1" xmlns="http://www.w3.org/2000/svg"><path d="M195.264 195.264 195.264 195.264c-174.976 174.912-174.976 458.624 0 633.536 174.912 174.976 458.56 174.912 633.472-0.064 174.976-174.976 175.04-458.56 0.064-633.472C653.888 20.224 370.24 20.224 195.264 195.264zM807.872 216.256c24.768 24.832 45.184 52.16 62.464 81.024l-121.216 121.216c-12.416-31.552-31.232-61.184-56.832-86.656C666.944 306.24 637.312 287.36 605.632 274.944l121.216-121.216C755.648 171.008 782.976 191.488 807.872 216.256zM352.896 671.296C264.96 583.104 264.96 440.896 352.768 352.704c88.192-87.744 230.4-87.744 318.656 0 87.616 88.128 87.744 230.464-0.064 318.656C583.168 759.104 440.896 758.976 352.896 671.296zM216.256 807.872c-24.768-24.896-45.184-52.224-62.528-81.088l121.28-121.216c12.416 31.488 31.36 61.184 56.896 86.656 25.408 25.344 55.04 44.352 86.592 56.896l-121.216 121.216C268.416 853.056 241.152 832.576 216.256 807.872zM297.28 153.664 418.56 274.944C387.008 287.36 357.312 306.24 331.84 331.776S287.424 386.88 275.008 418.432L153.728 297.28c17.28-28.864 37.76-56.192 62.528-81.088C241.088 191.424 268.416 170.944 297.28 153.664zM726.784 870.336l-121.216-121.28c31.488-12.416 61.184-31.552 86.656-56.832 25.344-25.408 44.416-55.104 56.896-86.72l121.28 121.344c-17.28 28.8-37.76 56.192-62.528 81.088C782.976 832.576 755.648 853.056 726.784 870.336z" /></svg>