<svg xmlns="http://www.w3.org/2000/svg" height="780" version="1.1" width="780" style=""><rect id="backgroundrect" width="100%" height="100%" x="0" y="0" fill="none" stroke="none" class="" style=""/><g class="currentLayer" style=""><title>Layer 1</title><path d="M542.948094936142,609.5412945354537 h-245.593487 c-8.010441,0 -14.503319,-6.492878 -14.503319,-14.503319 s6.493901,-14.503319 14.503319,-14.503319 h245.593487 c8.010441,0 14.503319,6.492878 14.503319,14.503319 s-6.492878,14.503319 -14.503319,14.503319 zM542.948094936142,488.79116253545385 h-245.593487 c-8.010441,0 -14.503319,-6.492878 -14.503319,-14.503318 s6.493901,-14.503319 14.503319,-14.503319 h245.593487 c8.010441,0 14.503319,6.492878 14.503319,14.503319 s-6.492878,14.503319 -14.503319,14.503318 zM542.948094936142,368.04103153545384 h-245.593487 c-8.010441,0 -14.503319,-6.492878 -14.503319,-14.503319 s6.493901,-14.503319 14.503319,-14.503318 h245.593487 c8.010441,0 14.503319,6.493901 14.503319,14.503318 s-6.492878,14.503319 -14.503319,14.503319 zM542.948094936142,247.29090053545377 h-245.593487 c-8.010441,0 -14.503319,-6.493901 -14.503319,-14.503319 s6.493901,-14.503319 14.503319,-14.503319 h245.593487 c8.010441,0 14.503319,6.493901 14.503319,14.503319 s-6.492878,14.503319 -14.503319,14.503319 zM542.948094936142,126.54076853545382 h-245.593487 c-8.010441,0 -14.503319,-6.493901 -14.503319,-14.503319 s6.493901,-14.503319 14.503319,-14.503318 h245.593487 c8.010441,0 14.503319,6.493901 14.503319,14.503318 s-6.492878,14.503319 -14.503319,14.503319 z" fill="#000000" id="svg_1" class="" fill-opacity="1"/><path d="M420.3028009361419,773.1249765354538 c-77.406974,0 -140.383284,-62.975287 -140.383284,-140.383284 v-610.975199 c0,-8.010441 6.493901,-14.503319 14.503319,-14.503319 s14.503319,6.493901 14.503318,14.503319 v610.975199 c0,61.413721 49.962925,111.376647 111.375624,111.376647 c61.413721,0 111.376647,-49.962925 111.376646,-111.376647 v-610.975199 c0,-8.010441 6.492878,-14.503319 14.503319,-14.503319 s14.503319,6.493901 14.503319,14.503319 v610.975199 c0.001023000000000002,77.407997 -62.974263,140.383284 -140.382261,140.383284 z" fill="#484848" id="svg_2" class="" fill-opacity="1"/><path d="M223.95899393614195,751.3858595354538 c-3.254114,0 -6.5266470000000005,-1.088798 -9.231245,-3.3236980000000003 c-6.17463,-5.102205 -5.799076,-15.724123 -0.6978950000000018,-21.898753 l70.408583,-85.180008 c5.102205,-6.17463 14.243399,-7.04444 20.419052,-1.941212 c6.17463,5.102205 7.043417,14.244422 1.941212,20.419052 l-71.652924,86.660732 a14.47262,14.47262 0 0 1 -11.186783,5.263887 zM476.42500593614193,750.5876805354538 c-3.254114,0 -6.5266470000000005,-1.088798 -9.231245,-3.3236980000000003 c-6.17463,-5.102205 -7.04444,-14.244422 -1.941212,-20.419052 l68.02121,-82.365916 c5.102205,-6.17463 14.244422,-7.04444 20.419052,-1.941212 s7.04444,14.244422 1.941211,20.419052 l-68.021209,82.365916 a14.473643,14.473643 0 0 1 -11.187807,5.26491 z" fill="#000000" id="svg_3" class="" fill-opacity="1"/><path d="M222.12955618298338,751.9517485354538 c8.010441,0 14.503319,-6.493901 14.503318,-14.503319 V109.2223345354538 l67.226101,-80.379678 c5.13802,-6.14393 4.324492,-15.291265 -1.820462,-20.430309 c-6.14393,-5.139044 -15.290241,-4.323469 -20.430308,1.820462 l-73.981968,88.457658 v638.756938 c0.0010230000000000022,8.010441 6.492878,14.504342 14.503319,14.504343 zM473.68073218298343,752.8041625354538 c8.009418,0 14.503319,-6.492878 14.503319,-14.503319 V110.07474853545381 l67.2261,-80.379678 c5.13802,-6.14393 4.323469,-15.291265 -1.8204609999999999,-20.430309 c-6.142907,-5.13802 -15.290241,-4.325515 -20.430309,1.820462 l-73.982991,88.457658 v638.756939 c0,8.011464 6.493901,14.504342 14.504342,14.504342 z" fill="#242424" id="svg_4" class="" fill-opacity="1"/></g></svg>