<?xml version="1.0" standalone="no"?><!DOCTYPE svg PUBLIC "-//W3C//DTD SVG 1.1//EN" "http://www.w3.org/Graphics/SVG/1.1/DTD/svg11.dtd"><svg class="icon" height="512" viewBox="0 0 1024 1024" version="1.1" xmlns="http://www.w3.org/2000/svg"><path d="M952.670264 382.978575c-58.155254-72.127753-194.481153-24.095615-357.692769 41.175401-163.101691 65.432906-352.975976 148.537594-518.22121 146.23516 1.07367 64.366031 43.693089 161.33789 79.678019 238.065515 119.51493 0 541.565935 0 660.976336 0C836.901387 575.52964 969.056122 565.730303 952.670264 382.978575zM624.755047 365.034377l-104.368829 4.019267-4.332054-31.538954 193.517008-2.83767c16.433825-5.189471 33.092297-10.064556 49.795939-14.563497l-25.806452-99.059839c-103.777231-21.369469-163.587361-20.990726-267.414558 1.177599l-216.860935 123.260983 0.373146 30.526642L233.061998 444.39721l-31.431027 66.069872-82.303234 20.990726 0.105528 12.747332C311.076148 526.215374 452.169805 433.738458 624.755047 365.034377zM725.575289 258.16185l4.607867 26.23516-220.773874 8.890355-4.443978-31.917696L725.575289 258.16185zM416.348363 298.481233l68.756046-36.304713-0.854419 36.145221-67.901627 31.699844L416.348363 298.481233zM416.348363 374.620858l67.149738-35.710117-0.80845 36.193788-66.341288 31.053284L416.348363 374.620858zM346.313187 335.589599l47.064796-25.007395 0 30.040972-47.064796 21.841148L346.313187 335.589599zM346.313187 411.57313l47.064796-25.007995 0 30.037974-47.064796 22.008434L346.313187 411.57313zM271.986329 377.142143l56.974058-32.451933 0 25.919375-56.974058 29.930048L271.986329 377.142143zM252.1768 453.122876l76.783587-32.286445 0 25.753488-76.783587 30.094935L252.1768 453.122876z" /></svg>